<svg width="196" height="26" viewBox="0 0 196 26" fill="none" xmlns="http://www.w3.org/2000/svg">
<path d="M19.1 3.94V25H13.97V16.33H5.99V25H0.86V3.94H5.99V12.19H13.97V3.94H19.1ZM30.4234 25.24C28.7834 25.24 27.3034 24.89 25.9834 24.19C24.6834 23.49 23.6534 22.49 22.8934 21.19C22.1534 19.89 21.7834 18.37 21.7834 16.63C21.7834 14.91 22.1634 13.4 22.9234 12.1C23.6834 10.78 24.7234 9.77 26.0434 9.07C27.3634 8.37 28.8434 8.02 30.4834 8.02C32.1234 8.02 33.6034 8.37 34.9234 9.07C36.2434 9.77 37.2834 10.78 38.0434 12.1C38.8034 13.4 39.1834 14.91 39.1834 16.63C39.1834 18.35 38.7934 19.87 38.0134 21.19C37.2534 22.49 36.2034 23.49 34.8634 24.19C33.5434 24.89 32.0634 25.24 30.4234 25.24ZM30.4234 20.8C31.4034 20.8 32.2334 20.44 32.9134 19.72C33.6134 19 33.9634 17.97 33.9634 16.63C33.9634 15.29 33.6234 14.26 32.9434 13.54C32.2834 12.82 31.4634 12.46 30.4834 12.46C29.4834 12.46 28.6534 12.82 27.9934 13.54C27.3334 14.24 27.0034 15.27 27.0034 16.63C27.0034 17.97 27.3234 19 27.9634 19.72C28.6234 20.44 29.4434 20.8 30.4234 20.8ZM47.0349 2.8V25H41.9049V2.8H47.0349ZM49.7326 16.6C49.7326 14.88 50.0526 13.37 50.6926 12.07C51.3526 10.77 52.2426 9.77 53.3626 9.07C54.4826 8.37 55.7326 8.02 57.1126 8.02C58.2926 8.02 59.3226 8.26 60.2026 8.74C61.1026 9.22 61.7926 9.85 62.2726 10.63V8.26H67.4026V25H62.2726V22.63C61.7726 23.41 61.0726 24.04 60.1726 24.52C59.2926 25 58.2626 25.24 57.0826 25.24C55.7226 25.24 54.4826 24.89 53.3626 24.19C52.2426 23.47 51.3526 22.46 50.6926 21.16C50.0526 19.84 49.7326 18.32 49.7326 16.6ZM62.2726 16.63C62.2726 15.35 61.9126 14.34 61.1926 13.6C60.4926 12.86 59.6326 12.49 58.6126 12.49C57.5926 12.49 56.7226 12.86 56.0026 13.6C55.3026 14.32 54.9526 15.32 54.9526 16.6C54.9526 17.88 55.3026 18.9 56.0026 19.66C56.7226 20.4 57.5926 20.77 58.6126 20.77C59.6326 20.77 60.4926 20.4 61.1926 19.66C61.9126 18.92 62.2726 17.91 62.2726 16.63ZM91.1813 3.94V8.05H82.6013V12.49H89.0213V16.48H82.6013V25H77.4713V3.94H91.1813ZM92.8576 16.6C92.8576 14.88 93.1776 13.37 93.8176 12.07C94.4776 10.77 95.3676 9.77 96.4876 9.07C97.6076 8.37 98.8576 8.02 100.238 8.02C101.418 8.02 102.448 8.26 103.328 8.74C104.228 9.22 104.918 9.85 105.398 10.63V8.26H110.528V25H105.398V22.63C104.898 23.41 104.198 24.04 103.298 24.52C102.418 25 101.388 25.24 100.208 25.24C98.8476 25.24 97.6076 24.89 96.4876 24.19C95.3676 23.47 94.4776 22.46 93.8176 21.16C93.1776 19.84 92.8576 18.32 92.8576 16.6ZM105.398 16.63C105.398 15.35 105.038 14.34 104.318 13.6C103.618 12.86 102.758 12.49 101.738 12.49C100.718 12.49 99.8476 12.86 99.1276 13.6C98.4276 14.32 98.0776 15.32 98.0776 16.6C98.0776 17.88 98.4276 18.9 99.1276 19.66C99.8476 20.4 100.718 20.77 101.738 20.77C102.758 20.77 103.618 20.4 104.318 19.66C105.038 18.92 105.398 17.91 105.398 16.63ZM121.049 25.24C119.589 25.24 118.289 24.99 117.149 24.49C116.009 23.99 115.109 23.31 114.449 22.45C113.789 21.57 113.419 20.59 113.339 19.51H118.409C118.469 20.09 118.739 20.56 119.219 20.92C119.699 21.28 120.289 21.46 120.989 21.46C121.629 21.46 122.119 21.34 122.459 21.1C122.819 20.84 122.999 20.51 122.999 20.11C122.999 19.63 122.749 19.28 122.249 19.06C121.749 18.82 120.939 18.56 119.819 18.28C118.619 18 117.619 17.71 116.819 17.41C116.019 17.09 115.329 16.6 114.749 15.94C114.169 15.26 113.879 14.35 113.879 13.21C113.879 12.25 114.139 11.38 114.659 10.6C115.199 9.8 115.979 9.17 116.999 8.71C118.039 8.25 119.269 8.02 120.689 8.02C122.789 8.02 124.439 8.54 125.639 9.58C126.859 10.62 127.559 12 127.739 13.72H122.999C122.919 13.14 122.659 12.68 122.219 12.34C121.799 12 121.239 11.83 120.539 11.83C119.939 11.83 119.479 11.95 119.159 12.19C118.839 12.41 118.679 12.72 118.679 13.12C118.679 13.6 118.929 13.96 119.429 14.2C119.949 14.44 120.749 14.68 121.829 14.92C123.069 15.24 124.079 15.56 124.859 15.88C125.639 16.18 126.319 16.68 126.899 17.38C127.499 18.06 127.809 18.98 127.829 20.14C127.829 21.12 127.549 22 126.989 22.78C126.449 23.54 125.659 24.14 124.619 24.58C123.599 25.02 122.409 25.24 121.049 25.24ZM141.257 8.08C143.177 8.08 144.717 8.72 145.877 10C147.037 11.26 147.617 13 147.617 15.22V25H142.517V15.91C142.517 14.79 142.227 13.92 141.647 13.3C141.067 12.68 140.287 12.37 139.307 12.37C138.327 12.37 137.547 12.68 136.967 13.3C136.387 13.92 136.097 14.79 136.097 15.91V25H130.967V2.8H136.097V10.51C136.617 9.77 137.327 9.18 138.227 8.74C139.127 8.3 140.137 8.08 141.257 8.08ZM153.762 6.52C152.862 6.52 152.122 6.26 151.542 5.74C150.982 5.2 150.702 4.54 150.702 3.76C150.702 2.96 150.982 2.3 151.542 1.78C152.122 1.24 152.862 0.969998 153.762 0.969998C154.642 0.969998 155.362 1.24 155.922 1.78C156.502 2.3 156.792 2.96 156.792 3.76C156.792 4.54 156.502 5.2 155.922 5.74C155.362 6.26 154.642 6.52 153.762 6.52ZM156.312 8.26V25H151.182V8.26H156.312ZM167.65 25.24C166.01 25.24 164.53 24.89 163.21 24.19C161.91 23.49 160.88 22.49 160.12 21.19C159.38 19.89 159.01 18.37 159.01 16.63C159.01 14.91 159.39 13.4 160.15 12.1C160.91 10.78 161.95 9.77 163.27 9.07C164.59 8.37 166.07 8.02 167.71 8.02C169.35 8.02 170.83 8.37 172.15 9.07C173.47 9.77 174.51 10.78 175.27 12.1C176.03 13.4 176.41 14.91 176.41 16.63C176.41 18.35 176.02 19.87 175.24 21.19C174.48 22.49 173.43 23.49 172.09 24.19C170.77 24.89 169.29 25.24 167.65 25.24ZM167.65 20.8C168.63 20.8 169.46 20.44 170.14 19.72C170.84 19 171.19 17.97 171.19 16.63C171.19 15.29 170.85 14.26 170.17 13.54C169.51 12.82 168.69 12.46 167.71 12.46C166.71 12.46 165.88 12.82 165.22 13.54C164.56 14.24 164.23 15.27 164.23 16.63C164.23 17.97 164.55 19 165.19 19.72C165.85 20.44 166.67 20.8 167.65 20.8ZM189.331 8.08C191.291 8.08 192.851 8.72 194.011 10C195.191 11.26 195.781 13 195.781 15.22V25H190.681V15.91C190.681 14.79 190.391 13.92 189.811 13.3C189.231 12.68 188.451 12.37 187.471 12.37C186.491 12.37 185.711 12.68 185.131 13.3C184.551 13.92 184.261 14.79 184.261 15.91V25H179.131V8.26H184.261V10.48C184.781 9.74 185.481 9.16 186.361 8.74C187.241 8.3 188.231 8.08 189.331 8.08Z" fill="#91916C"/>
</svg>
